<?xml version="1.0" standalone="no"?>
<!DOCTYPE svg PUBLIC "-//W3C//DTD SVG 20010904//EN"
 "http://www.w3.org/TR/2001/REC-SVG-20010904/DTD/svg10.dtd">
<svg version="1.0" xmlns="http://www.w3.org/2000/svg"
 width="696.000000pt" height="1280.000000pt" viewBox="0 0 696.000000 1280.000000"
 preserveAspectRatio="xMidYMid meet">
<metadata>
Created by potrace 1.15, written by Peter Selinger 2001-2017
</metadata>
<g transform="translate(0.000000,1280.000000) scale(0.100000,-0.100000)"
fill="#000000" stroke="none">
<path d="M5281 12788 c-19 -5 -58 -33 -88 -63 -43 -44 -67 -82 -120 -192 -36
-76 -94 -197 -128 -269 -144 -302 -308 -483 -540 -598 -49 -25 -125 -55 -169
-68 -72 -21 -83 -28 -137 -86 -75 -80 -153 -196 -266 -397 -164 -291 -193
-362 -231 -556 -21 -106 -27 -147 -62 -442 -19 -159 -51 -332 -71 -384 -21
-57 -222 -279 -374 -414 -22 -20 -70 -70 -107 -112 -95 -105 -199 -186 -320
-247 -57 -29 -132 -75 -168 -104 -103 -82 -221 -167 -585 -421 -510 -357 -649
-468 -901 -719 -185 -186 -265 -281 -379 -452 -185 -277 -291 -523 -409 -954
-91 -334 -118 -532 -118 -885 -1 -337 19 -535 131 -1330 36 -256 67 -530 81
-730 6 -82 15 -190 21 -239 20 -180 -19 -366 -136 -656 -137 -338 -168 -435
-190 -600 -35 -257 -3 -524 95 -775 70 -179 222 -401 365 -532 303 -279 830
-465 1525 -539 207 -23 743 -26 960 -6 493 45 937 145 1295 291 164 68 265
140 280 203 6 23 1 34 -27 62 -57 57 -176 84 -413 92 -197 7 -372 -11 -492
-51 -182 -62 -936 -110 -1168 -75 -38 5 -143 15 -231 20 -257 15 -448 63 -827
206 -207 78 -295 133 -420 263 -101 105 -201 251 -222 326 -24 82 -35 162 -35
261 0 184 61 292 187 330 63 19 117 18 231 -6 172 -35 413 -60 775 -80 269
-16 1990 -17 2372 -2 877 34 1379 123 1678 295 96 56 192 151 200 200 13 83
-31 144 -126 172 -29 9 -131 25 -227 36 -189 21 -292 42 -326 64 -17 11 -24
34 -38 122 -18 112 -84 436 -181 893 -154 721 -201 1206 -146 1480 57 284 206
654 422 1048 50 91 111 205 137 254 26 51 85 138 140 206 149 184 193 258 223
372 6 25 30 76 53 115 129 216 160 374 178 907 13 411 11 433 -57 803 -55 297
-68 414 -62 560 11 278 64 366 313 519 94 58 151 102 209 160 170 171 289 397
302 571 13 164 -47 246 -252 353 -144 75 -207 119 -243 173 -169 250 -354 402
-582 479 -35 12 -104 27 -154 33 l-91 12 -23 47 c-39 78 -52 191 -61 528 -10
337 -19 400 -66 471 -40 61 -116 83 -204 57z"/>
</g>
</svg>
